<svg width="16" height="16" viewBox="0 0 16 16" fill="none" xmlns="http://www.w3.org/2000/svg">
<g clip-path="url(#clip0_4_9)">
<path d="M7.646 1.14599C7.69245 1.09943 7.74762 1.06249 7.80837 1.03728C7.86911 1.01207 7.93423 0.9991 8 0.9991C8.06577 0.9991 8.13089 1.01207 8.19163 1.03728C8.25238 1.06249 8.30755 1.09943 8.354 1.14599L9.854 2.64599C9.90049 2.69248 9.93736 2.74767 9.96252 2.80841C9.98768 2.86915 10.0006 2.93425 10.0006 2.99999C10.0006 3.06574 9.98768 3.13084 9.96252 3.19158C9.93736 3.25232 9.90049 3.30751 9.854 3.35399C9.80751 3.40048 9.75232 3.43736 9.69158 3.46252C9.63084 3.48768 9.56574 3.50063 9.5 3.50063C9.43426 3.50063 9.36916 3.48768 9.30842 3.46252C9.24768 3.43736 9.19249 3.40048 9.146 3.35399L8.5 2.70699V4.49999C8.5 4.6326 8.44732 4.75978 8.35355 4.85355C8.25979 4.94732 8.13261 4.99999 8 4.99999C7.86739 4.99999 7.74021 4.94732 7.64645 4.85355C7.55268 4.75978 7.5 4.6326 7.5 4.49999V2.70699L6.854 3.35399C6.80751 3.40048 6.75232 3.43736 6.69158 3.46252C6.63084 3.48768 6.56574 3.50063 6.5 3.50063C6.43426 3.50063 6.36916 3.48768 6.30842 3.46252C6.24768 3.43736 6.19249 3.40048 6.146 3.35399C6.09951 3.30751 6.06264 3.25232 6.03748 3.19158C6.01232 3.13084 5.99937 3.06574 5.99937 2.99999C5.99937 2.93425 6.01232 2.86915 6.03748 2.80841C6.06264 2.74767 6.09951 2.69248 6.146 2.64599L7.646 1.14599ZM2.343 4.34299C2.43676 4.24926 2.56392 4.1966 2.6965 4.1966C2.82908 4.1966 2.95624 4.24926 3.05 4.34299L4.464 5.75699C4.55508 5.85129 4.60548 5.9776 4.60434 6.10869C4.6032 6.23979 4.55061 6.3652 4.45791 6.4579C4.36521 6.55061 4.2398 6.60319 4.1087 6.60433C3.9776 6.60547 3.8513 6.55507 3.757 6.46399L2.343 5.04999C2.24926 4.95623 2.19661 4.82908 2.19661 4.69649C2.19661 4.56391 2.24926 4.43676 2.343 4.34299ZM13.657 4.34299C13.7507 4.43676 13.8034 4.56391 13.8034 4.69649C13.8034 4.82908 13.7507 4.95623 13.657 5.04999L12.243 6.46399C12.1969 6.51175 12.1417 6.54984 12.0807 6.57604C12.0197 6.60225 11.9541 6.61604 11.8877 6.61662C11.8213 6.6172 11.7555 6.60454 11.694 6.5794C11.6326 6.55426 11.5767 6.51714 11.5298 6.47019C11.4829 6.42324 11.4457 6.36742 11.4206 6.30597C11.3954 6.24452 11.3828 6.17868 11.3834 6.11229C11.384 6.0459 11.3977 5.98029 11.4239 5.91929C11.4502 5.85829 11.4882 5.80312 11.536 5.75699L12.95 4.34299C13.0438 4.24926 13.1709 4.1966 13.3035 4.1966C13.4361 4.1966 13.5632 4.24926 13.657 4.34299ZM11.709 11.5C11.9542 10.8928 12.0466 10.2348 11.978 9.58358C11.9095 8.93239 11.6822 8.30797 11.316 7.76516C10.9497 7.22234 10.4559 6.77773 9.87773 6.47035C9.29957 6.16297 8.65479 6.00222 8 6.00222C7.34521 6.00222 6.70043 6.16297 6.12227 6.47035C5.54411 6.77773 5.05025 7.22234 4.68405 7.76516C4.31784 8.30797 4.0905 8.93239 4.02197 9.58358C3.95344 10.2348 4.04582 10.8928 4.291 11.5H0.5C0.367392 11.5 0.240215 11.5527 0.146447 11.6464C0.0526784 11.7402 0 11.8674 0 12C0 12.1326 0.0526784 12.2598 0.146447 12.3535C0.240215 12.4473 0.367392 12.5 0.5 12.5H15.5C15.6326 12.5 15.7598 12.4473 15.8536 12.3535C15.9473 12.2598 16 12.1326 16 12C16 11.8674 15.9473 11.7402 15.8536 11.6464C15.7598 11.5527 15.6326 11.5 15.5 11.5H11.71H11.709ZM0 9.99999C0 9.86739 0.0526784 9.74021 0.146447 9.64644C0.240215 9.55267 0.367392 9.49999 0.5 9.49999H2.5C2.63261 9.49999 2.75979 9.55267 2.85355 9.64644C2.94732 9.74021 3 9.86739 3 9.99999C3 10.1326 2.94732 10.2598 2.85355 10.3535C2.75979 10.4473 2.63261 10.5 2.5 10.5H0.5C0.367392 10.5 0.240215 10.4473 0.146447 10.3535C0.0526784 10.2598 0 10.1326 0 9.99999ZM13 9.99999C13 9.86739 13.0527 9.74021 13.1464 9.64644C13.2402 9.55267 13.3674 9.49999 13.5 9.49999H15.5C15.6326 9.49999 15.7598 9.55267 15.8536 9.64644C15.9473 9.74021 16 9.86739 16 9.99999C16 10.1326 15.9473 10.2598 15.8536 10.3535C15.7598 10.4473 15.6326 10.5 15.5 10.5H13.5C13.3674 10.5 13.2402 10.4473 13.1464 10.3535C13.0527 10.2598 13 10.1326 13 9.99999Z" fill="black"/>
</g>
<defs>
<clipPath id="clip0_4_9">
<rect width="16" height="16" fill="white"/>
</clipPath>
</defs>
</svg>
