<?xml version="1.0" encoding="UTF-8"?>

<svg xmlns="http://www.w3.org/2000/svg" xmlns:xlink="http://www.w3.org/1999/xlink" width="0" height="0">

<symbol id="ri_search-line" width="24" height="24" viewBox="0 0 24 24" fill="none">
<path d="M18.031 16.617L22.314 20.899L20.899 22.314L16.617 18.031C15.0237 19.3082 13.042 20.0029 11 20C6.032 20 2 15.968 2 11C2 6.032 6.032 2 11 2C15.968 2 20 6.032 20 11C20.0029 13.042 19.3082 15.0237 18.031 16.617ZM16.025 15.875C17.2941 14.5699 18.0029 12.8204 18 11C18 7.133 14.867 4 11 4C7.133 4 4 7.133 4 11C4 14.867 7.133 18 11 18C12.8204 18.0029 14.5699 17.2941 15.875 16.025L16.025 15.875Z" fill="white"/>
</symbol>

<symbol id="location" width="16" height="16" viewBox="0 0 16 16" fill="none">
<path d="M12.596 11.596L9.06096 15.132C8.92166 15.2714 8.75626 15.382 8.5742 15.4574C8.39215 15.5329 8.19702 15.5717 7.99996 15.5717C7.80289 15.5717 7.60776 15.5329 7.42571 15.4574C7.24366 15.382 7.07826 15.2714 6.93896 15.132L3.40396 11.596C2.80034 10.9925 2.3215 10.2759 1.9948 9.48733C1.6681 8.69872 1.49992 7.85349 1.49988 6.99988C1.49983 6.14628 1.66791 5.30103 1.99453 4.51238C2.32115 3.72374 2.7999 3.00715 3.40346 2.40353C4.00701 1.79991 4.72355 1.32108 5.51216 0.994375C6.30077 0.667673 7.146 0.499497 7.9996 0.499451C8.85321 0.499404 9.69846 0.667488 10.4871 0.994104C11.2757 1.32072 11.9923 1.79947 12.596 2.40303C13.1996 3.00662 13.6785 3.72322 14.0052 4.51189C14.3319 5.30056 14.5001 6.14586 14.5001 6.99953C14.5001 7.85319 14.3319 8.6985 14.0052 9.48717C13.6785 10.2758 13.1996 10.9924 12.596 11.596ZM11.536 3.46403C10.5982 2.52622 9.32621 1.99837 7.99996 1.99837C6.6737 1.99837 5.40176 2.52522 4.46396 3.46303C3.52615 4.40084 2.9993 5.67277 2.9993 6.99903C2.9993 8.32529 3.52615 9.59722 4.46396 10.535L7.99996 14.07L11.536 10.536C12.0004 10.0717 12.3688 9.52047 12.6202 8.91375C12.8715 8.30704 13.0009 7.65675 13.0009 7.00003C13.0009 6.34331 12.8715 5.69302 12.6202 5.08631C12.3688 4.47959 12.0004 3.92834 11.536 3.46403ZM7.99996 9.00003C7.73362 9.00605 7.46876 8.9588 7.22093 8.86106C6.97311 8.76331 6.7473 8.61704 6.55678 8.43083C6.36627 8.24461 6.21487 8.02221 6.11148 7.77669C6.0081 7.53116 5.95481 7.26745 5.95474 7.00104C5.95467 6.73463 6.00783 6.4709 6.1111 6.22532C6.21436 5.97974 6.36564 5.75726 6.55607 5.57096C6.74649 5.38465 6.97222 5.23826 7.22 5.14039C7.46778 5.04252 7.73262 4.99514 7.99896 5.00103C8.52152 5.01259 9.01879 5.22825 9.38433 5.60187C9.74986 5.97548 9.95461 6.47735 9.95474 7.00004C9.95487 7.52273 9.75038 8.0247 9.38503 8.3985C9.01968 8.7723 8.52251 8.98821 7.99996 9.00003Z" fill="#cdc8c8"/>
</symbol>

<svg id="1" enable-background="new 0 0 48 48" viewBox="0 0 48 48" xmlns="http://www.w3.org/2000/svg"><g fill="#dbce86"><path d="m34.6 28.1h4v17h-4z" transform="matrix(.707 -.707 .707 .707 -15.154 36.586)"/><circle cx="20" cy="20" r="16"/></g><path d="m36.2 32.1h4v12.3h-4z" fill="#dbce86" transform="matrix(.707 -.707 .707 .707 -15.839 38.239)"/><circle cx="20" cy="20" fill="#64b5f6" r="13"/><path d="m26.9 14.2c-1.7-2-4.2-3.2-6.9-3.2s-5.2 1.2-6.9 3.2c-.4.4-.3 1.1.1 1.4.4.4 1.1.3 1.4-.1 1.4-1.6 3.3-2.5 5.4-2.5s4 .9 5.4 2.5c.2.2.5.4.8.4.2 0 .5-.1.6-.2.4-.4.4-1.1.1-1.5z" fill="#bbdefb"/></svg>

</svg>