<svg aria-hidden="true" style="position: absolute; width: 0; height: 0; overflow: hidden;" version="1.1" xmlns="http://www.w3.org/2000/svg" xmlns:xlink="http://www.w3.org/1999/xlink">
<defs>
<symbol id="icon-bi_sunrise-fill"  viewBox="0 0 32 32">
<path d="M15.292 2.292c0.093-0.093 0.203-0.167 0.325-0.217s0.252-0.076 0.383-0.076c0.132 0 0.262 0.026 0.383 0.076s0.232 0.124 0.325 0.217l3 3c0.093 0.093 0.167 0.203 0.217 0.325s0.076 0.252 0.076 0.383c0 0.131-0.026 0.262-0.076 0.383s-0.124 0.232-0.217 0.325c-0.093 0.093-0.203 0.167-0.325 0.217s-0.252 0.076-0.383 0.076c-0.131 0-0.262-0.026-0.383-0.076s-0.232-0.124-0.325-0.217l-1.292-1.294v3.586c0 0.265-0.105 0.52-0.293 0.707s-0.442 0.293-0.707 0.293c-0.265 0-0.52-0.105-0.707-0.293s-0.293-0.442-0.293-0.707v-3.586l-1.292 1.294c-0.093 0.093-0.203 0.167-0.325 0.217s-0.252 0.076-0.383 0.076c-0.131 0-0.262-0.026-0.383-0.076s-0.232-0.124-0.325-0.217c-0.093-0.093-0.167-0.203-0.217-0.325s-0.076-0.252-0.076-0.383c0-0.131 0.026-0.262 0.076-0.383s0.124-0.232 0.217-0.325l3-3zM4.686 8.686c0.188-0.187 0.442-0.293 0.707-0.293s0.519 0.105 0.707 0.293l2.828 2.828c0.182 0.189 0.283 0.441 0.281 0.703s-0.107 0.513-0.293 0.698c-0.185 0.185-0.436 0.291-0.698 0.293s-0.515-0.099-0.703-0.281l-2.828-2.828c-0.187-0.188-0.293-0.442-0.293-0.707s0.105-0.519 0.293-0.707zM27.314 8.686c0.187 0.188 0.293 0.442 0.293 0.707s-0.105 0.519-0.293 0.707l-2.828 2.828c-0.092 0.096-0.203 0.172-0.325 0.224s-0.253 0.080-0.386 0.081c-0.133 0.001-0.264-0.024-0.387-0.074s-0.235-0.125-0.328-0.218-0.168-0.206-0.218-0.328c-0.050-0.123-0.076-0.255-0.074-0.387s0.029-0.264 0.081-0.386c0.053-0.122 0.129-0.232 0.224-0.325l2.828-2.828c0.188-0.187 0.442-0.293 0.707-0.293s0.519 0.105 0.707 0.293zM23.418 23c0.49-1.214 0.675-2.53 0.538-3.833s-0.592-2.551-1.324-3.637c-0.733-1.086-1.72-1.975-2.877-2.59s-2.446-0.936-3.755-0.936c-1.31 0-2.599 0.322-3.755 0.936s-2.144 1.504-2.876 2.59c-0.732 1.086-1.187 2.334-1.324 3.637s0.048 2.618 0.538 3.833h-7.582c-0.265 0-0.52 0.105-0.707 0.293s-0.293 0.442-0.293 0.707 0.105 0.52 0.293 0.707c0.188 0.188 0.442 0.293 0.707 0.293h30c0.265 0 0.52-0.105 0.707-0.293s0.293-0.442 0.293-0.707-0.105-0.52-0.293-0.707c-0.188-0.187-0.442-0.293-0.707-0.293h-7.582zM0 20c0-0.265 0.105-0.52 0.293-0.707s0.442-0.293 0.707-0.293h4c0.265 0 0.52 0.105 0.707 0.293s0.293 0.442 0.293 0.707c0 0.265-0.105 0.52-0.293 0.707s-0.442 0.293-0.707 0.293h-4c-0.265 0-0.52-0.105-0.707-0.293s-0.293-0.442-0.293-0.707zM26 20c0-0.265 0.105-0.52 0.293-0.707s0.442-0.293 0.707-0.293h4c0.265 0 0.52 0.105 0.707 0.293s0.293 0.442 0.293 0.707-0.105 0.52-0.293 0.707c-0.188 0.188-0.442 0.293-0.707 0.293h-4c-0.265 0-0.52-0.105-0.707-0.293s-0.293-0.442-0.293-0.707z"></path>
</symbol>
<symbol id="icon-bi_sunset-fill" viewBox="0 0 32 32">
<path d="M15.292 9.708c0.093 0.093 0.203 0.167 0.325 0.217s0.252 0.076 0.383 0.076c0.132 0 0.262-0.026 0.383-0.076s0.232-0.124 0.325-0.217l3-3c0.093-0.093 0.167-0.203 0.217-0.325s0.076-0.252 0.076-0.383c0-0.131-0.026-0.262-0.076-0.383s-0.124-0.232-0.217-0.325c-0.093-0.093-0.203-0.167-0.325-0.217s-0.252-0.076-0.383-0.076c-0.131 0-0.262 0.026-0.383 0.076s-0.232 0.124-0.325 0.217l-1.292 1.294v-3.586c0-0.265-0.105-0.52-0.293-0.707s-0.442-0.293-0.707-0.293c-0.265 0-0.52 0.105-0.707 0.293s-0.293 0.442-0.293 0.707v3.586l-1.292-1.294c-0.093-0.093-0.203-0.167-0.325-0.217s-0.252-0.076-0.383-0.076c-0.131 0-0.262 0.026-0.383 0.076s-0.232 0.124-0.325 0.217c-0.093 0.093-0.167 0.203-0.217 0.325s-0.076 0.252-0.076 0.383c0 0.131 0.026 0.262 0.076 0.383s0.124 0.232 0.217 0.325l3 3zM4.686 8.688c0.188-0.187 0.442-0.293 0.707-0.293s0.519 0.105 0.707 0.293l2.828 2.826c0.182 0.189 0.283 0.441 0.281 0.703s-0.107 0.513-0.293 0.698c-0.185 0.185-0.436 0.291-0.698 0.293s-0.515-0.099-0.703-0.281l-2.828-2.828c-0.187-0.188-0.293-0.442-0.293-0.707s0.105-0.517 0.293-0.705zM27.314 8.688c0.187 0.187 0.292 0.441 0.292 0.706s-0.105 0.519-0.292 0.706l-2.828 2.828c-0.092 0.096-0.203 0.172-0.325 0.224s-0.253 0.080-0.386 0.081c-0.133 0.001-0.264-0.024-0.387-0.074s-0.235-0.125-0.328-0.218-0.168-0.206-0.218-0.328c-0.050-0.123-0.076-0.255-0.074-0.387s0.029-0.264 0.081-0.386c0.053-0.122 0.129-0.232 0.224-0.325l2.828-2.828c0.188-0.187 0.442-0.293 0.707-0.293s0.519 0.107 0.707 0.295zM23.418 23c0.49-1.214 0.675-2.53 0.538-3.833s-0.592-2.551-1.324-3.637c-0.733-1.086-1.72-1.975-2.877-2.59s-2.446-0.936-3.755-0.936c-1.31 0-2.599 0.322-3.755 0.936s-2.144 1.504-2.876 2.59c-0.732 1.086-1.187 2.334-1.324 3.637s0.048 2.618 0.538 3.833h-7.582c-0.265 0-0.52 0.105-0.707 0.293s-0.293 0.442-0.293 0.707 0.105 0.52 0.293 0.707c0.188 0.187 0.442 0.293 0.707 0.293h30c0.265 0 0.52-0.105 0.707-0.293s0.293-0.442 0.293-0.707-0.105-0.52-0.293-0.707c-0.188-0.187-0.442-0.293-0.707-0.293h-7.582zM0 20c0-0.265 0.105-0.52 0.293-0.707s0.442-0.293 0.707-0.293h4c0.265 0 0.52 0.105 0.707 0.293s0.293 0.442 0.293 0.707c0 0.265-0.105 0.52-0.293 0.707s-0.442 0.293-0.707 0.293h-4c-0.265 0-0.52-0.105-0.707-0.293s-0.293-0.442-0.293-0.707zM26 20c0-0.265 0.105-0.52 0.293-0.707s0.442-0.293 0.707-0.293h4c0.265 0 0.52 0.105 0.707 0.293s0.293 0.442 0.293 0.707-0.105 0.52-0.293 0.707c-0.188 0.187-0.442 0.293-0.707 0.293h-4c-0.265 0-0.52-0.105-0.707-0.293s-0.293-0.442-0.293-0.707z"></path>
</symbol>
</defs>
</svg>
