<svg xmlns="http://www.w3.org/2000/svg" width="24" height="24" data-name="Layer 1" viewBox="0 0 24 24" id="target"><path fill="#fff" d="M12.5,19.975m2.169-.83a7.087,7.087,0,0,0,4.494-4.532A7.036,7.036,0,0,1,14.669,19.145Zm-4.359-.007a7.039,7.039,0,0,1-4.45-4.45A7.091,7.091,0,0,0,10.31,19.138Zm9.2-6.638h0Zm-5.014,0a2,2,0,0,0-4,0,2,2,0,0,1,4,0Zm-9.007,0h0Zm13.676-2.1A7.089,7.089,0,0,0,14.6,5.83,7.034,7.034,0,0,1,19.169,10.4ZM5.854,10.329a7.036,7.036,0,0,1,4.531-4.493A7.084,7.084,0,0,0,5.854,10.329ZM12.5,4.5v0Z"></path><path d="M12.5,4a.5.5,0,0,0-.5.5v.525A7.5,7.5,0,0,0,5.025,12H4.5a.5.5,0,0,0,0,1h.525A7.5,7.5,0,0,0,12,19.975V20.5a.5.5,0,0,0,1,0v-.525A7.5,7.5,0,0,0,19.975,13H20.5a.5.5,0,0,0,0-1h-.525A7.5,7.5,0,0,0,13,5.025V4.5a.5.5,0,0,0-.5-.5Zm0,3a.5.5,0,0,0,.5-.5V6.025A6.5,6.5,0,0,1,18.975,12H18.5a.5.5,0,0,0,0,1h.475A6.5,6.5,0,0,1,13,18.975V18.5a.5.5,0,0,0-1,0v.475A6.5,6.5,0,0,1,6.025,13H6.5a.5.5,0,0,0,0-1H6.025A6.5,6.5,0,0,1,12,6.025V6.5a.5.5,0,0,0,.5.5Zm0,3A2.5,2.5,0,1,0,15,12.5,2.5,2.5,0,0,0,12.5,10Zm0,4A1.5,1.5,0,1,1,14,12.5,1.5,1.5,0,0,1,12.5,14Z"></path></svg>